<svg width="25" height="24" viewBox="0 0 25 24" fill="none" xmlns="http://www.w3.org/2000/svg">
<path d="M9.5 22H15.5C20.5 22 22.5 20 22.5 15V9C22.5 4 20.5 2 15.5 2H9.5C4.5 2 2.5 4 2.5 9V15C2.5 20 4.5 22 9.5 22Z" stroke="#615868" stroke-width="1.5" stroke-linecap="round" stroke-linejoin="round"/>
<path d="M17.5 2.43994V12.4199C17.5 14.3899 16.09 15.1599 14.36 14.1199L13.04 13.3299C12.74 13.1499 12.26 13.1499 11.96 13.3299L10.64 14.1199C8.91 15.1499 7.5 14.3899 7.5 12.4199V2.43994" stroke="#615868" stroke-width="1.5" stroke-linecap="round" stroke-linejoin="round"/>
<path d="M9.5 22H15.5C20.5 22 22.5 20 22.5 15V9C22.5 4 20.5 2 15.5 2H9.5C4.5 2 2.5 4 2.5 9V15C2.5 20 4.5 22 9.5 22Z" stroke="#615868" stroke-width="1.5" stroke-linecap="round" stroke-linejoin="round"/>
<path d="M17.5 2.43994V12.4199C17.5 14.3899 16.09 15.1599 14.36 14.1199L13.04 13.3299C12.74 13.1499 12.26 13.1499 11.96 13.3299L10.64 14.1199C8.91 15.1499 7.5 14.3899 7.5 12.4199V2.43994" stroke="#615868" stroke-width="1.5" stroke-linecap="round" stroke-linejoin="round"/>
</svg>
