<svg width="32" height="32" viewBox="0 0 32 32" fill="none" xmlns="http://www.w3.org/2000/svg">
<path d="M27.6812 13.5687L24 13.2187L20.3563 10.125C19.5625 9.44995 18.55 9.07495 17.5 9.07495H4.0625L2.09375 13.2437L1.28125 17.2437H0.3125L0.76875 20.4937H2.225H31.6875V17.975C31.6875 15.6937 29.95 13.7875 27.6812 13.5687Z" fill="#F37787"/>
<path d="M28.575 16.0996H27.9688C27.6062 16.0996 27.3125 15.8059 27.3125 15.4434C27.3125 15.0809 27.6062 14.7871 27.9688 14.7871H28.575C28.9375 14.7871 29.2313 15.0809 29.2313 15.4434C29.2313 15.8059 28.9375 16.0996 28.575 16.0996Z" fill="#EBEADF"/>
<path d="M28.575 16.0996C28.2125 16.0996 27.9187 15.8059 27.9187 15.4434C27.9187 15.0809 28.2125 14.7871 28.575 14.7871C28.9375 14.7871 29.2312 15.0809 29.2312 15.4434C29.2312 15.8059 28.9375 16.0996 28.575 16.0996Z" fill="white"/>
<path d="M31.6875 19.1125H30.8125C30.4313 19.1125 30.125 18.8063 30.125 18.425C30.125 18.0438 30.4313 17.7375 30.8125 17.7375H31.6875V19.1125Z" fill="#EBEADF"/>
<path d="M1.5 16.1875H2.75V14.0625H1.93125L1.5 16.1875Z" fill="#DB3328"/>
<path d="M2.4876 14.05V14.6938C2.4876 15.1688 2.10635 15.55 1.63135 15.55L1.50635 16.175H2.75635V14.05H2.4876Z" fill="#B5100B"/>
<path d="M1.93115 14.0625H29.3124C28.8187 13.8125 28.2687 13.6375 27.6812 13.5813L24.1687 13.25H2.09365L1.93115 14.0625Z" fill="#FFA1B1"/>
<path d="M22.6875 19.1125V13.2375H22.0625V19.1125H11.85L11.1938 13.2375H10.5625L11.2188 19.1125H2.125V17.9438C2.125 17.55 1.80625 17.2375 1.41875 17.2375H0.3125L0.76875 20.4875H1.5H2.125H11.375H12H22.0625H22.6875H31.6875V19.1125H22.6875Z" fill="#D84861"/>
<path d="M24 13.2312L20.3563 10.125C19.5625 9.44375 18.55 9.0625 17.5063 9.0625H4.0625L2.09375 13.25H24.1688L24 13.2312Z" fill="#323D2C"/>
<path d="M20.4312 10.1875H3.53125L2.09375 13.25H24.1688L24 13.2312L20.4312 10.1875Z" fill="#1C2617"/>
<path d="M5.875 10.1875L4.5625 13.25H10.375L10.0625 10.1875H5.875Z" fill="#485143"/>
<path d="M17 10.175H11.375L11.6875 13.2375H22L20.0187 11.375C19.2062 10.6063 18.125 10.175 17 10.175Z" fill="#485143"/>
<path d="M4.55625 10.175H3.53125L2.09375 13.2375H3.1375L4.55625 10.175Z" fill="#485143"/>
<path d="M20.4312 10.175H19.5562L23.0312 13.2375H23.9999L20.4312 10.175Z" fill="#747E6C"/>
<path d="M12.6875 14.75H15.125V15.375H12.6875V14.75Z" fill="#323D2C"/>
<path d="M8.81245 10.1875H6.6062L9.14995 13.25H10.375L10.2375 11.9062L8.81245 10.1875Z" fill="#747E6C"/>
<path d="M11.375 10.1875L11.6 12.3875L12.3188 13.25H15.8938L13.35 10.1875H11.375Z" fill="#747E6C"/>
<path d="M26.0813 22.9254C27.7624 22.9254 29.1251 21.5627 29.1251 19.8816C29.1251 18.2006 27.7624 16.8379 26.0813 16.8379C24.4003 16.8379 23.0376 18.2006 23.0376 19.8816C23.0376 21.5627 24.4003 22.9254 26.0813 22.9254Z" fill="#323D2C"/>
<path d="M5.81865 22.9254C7.49967 22.9254 8.8624 21.5627 8.8624 19.8816C8.8624 18.2006 7.49967 16.8379 5.81865 16.8379C4.13764 16.8379 2.7749 18.2006 2.7749 19.8816C2.7749 21.5627 4.13764 22.9254 5.81865 22.9254Z" fill="#323D2C"/>
<path d="M5.95632 16.8375C5.70632 16.825 5.45632 16.8437 5.21882 16.8937C4.95007 16.9437 5.00007 17.3375 5.26882 17.3375H5.31257C6.98132 17.3375 8.35632 18.7125 8.35632 20.3812V20.425C8.35007 20.6937 8.74382 20.7437 8.80007 20.475C8.84382 20.2375 8.86882 19.9937 8.85632 19.7375C8.78757 18.175 7.51882 16.9062 5.95632 16.8375Z" fill="#485143"/>
<path d="M7.18135 21.3566C5.6626 21.2628 4.4376 20.0316 4.3376 18.5128C4.3376 18.5003 4.3376 18.4878 4.3376 18.4753C4.30635 17.9191 3.59385 17.7253 3.28135 18.1878C2.93135 18.7066 2.74385 19.3441 2.7751 20.0191C2.8501 21.5753 4.1126 22.8441 5.6751 22.9191C6.35635 22.9503 6.9876 22.7566 7.50635 22.4128C7.96885 22.1003 7.7751 21.3878 7.21885 21.3566C7.20635 21.3566 7.19385 21.3566 7.18135 21.3566Z" fill="#1C2617"/>
<path d="M27.4438 21.3566C25.925 21.2628 24.7 20.0316 24.6 18.5128C24.6 18.5003 24.6 18.4878 24.6 18.4753C24.5688 17.9191 23.8563 17.7253 23.5438 18.1878C23.1938 18.7066 23.0063 19.3441 23.0375 20.0191C23.1125 21.5753 24.375 22.8441 25.9375 22.9191C26.6188 22.9503 27.25 22.7566 27.7688 22.4128C28.2313 22.1003 28.0375 21.3878 27.4813 21.3566C27.4688 21.3566 27.4563 21.3566 27.4438 21.3566Z" fill="#1C2617"/>
<path d="M5.8187 21.375C6.64368 21.375 7.31245 20.7062 7.31245 19.8812C7.31245 19.0562 6.64368 18.3875 5.8187 18.3875C4.99373 18.3875 4.32495 19.0562 4.32495 19.8812C4.32495 20.7062 4.99373 21.375 5.8187 21.375Z" fill="#747E6C"/>
<path d="M5.93745 18.3875C5.8562 18.3813 5.77495 18.3813 5.6937 18.3875C5.53745 18.4 5.5437 18.625 5.69995 18.6375H5.7187C6.4187 18.7062 6.98745 19.275 7.0562 19.975V19.9937C7.0687 20.15 7.2937 20.15 7.3062 20C7.31245 19.9187 7.31245 19.8375 7.3062 19.7562C7.24995 19.0375 6.66245 18.4437 5.93745 18.3875Z" fill="#C4C1AB"/>
<path d="M6.33116 20.6812C5.64366 20.6062 5.09366 20.0562 5.01866 19.3687C5.01866 19.3625 5.01866 19.3562 5.01866 19.35C4.98741 19.0562 4.59366 18.9812 4.46241 19.2437C4.35616 19.4687 4.30616 19.725 4.32491 19.9937C4.37491 20.725 4.97491 21.325 5.70616 21.375C5.97491 21.3937 6.23116 21.3437 6.44991 21.2375C6.71866 21.1125 6.63741 20.7125 6.34366 20.6812C6.34366 20.6812 6.33741 20.6812 6.33116 20.6812Z" fill="#485143"/>
<path d="M26.0687 21.375C26.8937 21.375 27.5625 20.7062 27.5625 19.8812C27.5625 19.0562 26.8937 18.3875 26.0687 18.3875C25.2437 18.3875 24.575 19.0562 24.575 19.8812C24.575 20.7062 25.2437 21.375 26.0687 21.375Z" fill="#747E6C"/>
<path d="M26.2063 16.8375C25.9563 16.825 25.7063 16.8437 25.4688 16.8937C25.2001 16.9437 25.2501 17.3375 25.5188 17.3375H25.5626C27.2313 17.3375 28.6063 18.7125 28.6063 20.3812V20.425C28.6001 20.6937 28.9938 20.7437 29.0501 20.475C29.0938 20.2375 29.1188 19.9937 29.1063 19.7375C29.0376 18.175 27.7688 16.9062 26.2063 16.8375Z" fill="#485143"/>
<path d="M26.1874 18.3875C26.1062 18.3813 26.0249 18.3813 25.9437 18.3875C25.7874 18.4 25.7937 18.625 25.9499 18.6375H25.9687C26.6687 18.7062 27.2374 19.275 27.3062 19.975V19.9937C27.3187 20.15 27.5437 20.15 27.5562 20C27.5624 19.9187 27.5624 19.8375 27.5562 19.7562C27.4999 19.0375 26.9124 18.4437 26.1874 18.3875Z" fill="#C4C1AB"/>
<path d="M26.5812 20.6812C25.8937 20.6062 25.3437 20.0562 25.2687 19.3687C25.2687 19.3625 25.2687 19.3562 25.2687 19.35C25.2374 19.0562 24.8437 18.9812 24.7124 19.2437C24.6062 19.4687 24.5562 19.725 24.5749 19.9937C24.6249 20.725 25.2249 21.325 25.9562 21.375C26.2249 21.3937 26.4812 21.3437 26.6999 21.2375C26.9687 21.1125 26.8874 20.7125 26.5937 20.6812C26.5937 20.6812 26.5874 20.6812 26.5812 20.6812Z" fill="#485143"/>
</svg>
