<svg width="120" height="120" viewBox="0 0 120 120" fill="none" xmlns="http://www.w3.org/2000/svg">
<path d="M60 120C93.1371 120 120 93.1371 120 60C120 26.8629 93.1371 0 60 0C26.8629 0 0 26.8629 0 60C0 93.1371 26.8629 120 60 120Z" fill="#042927"/>
<path d="M60 120C93.1371 120 120 93.1371 120 60C120 26.8629 93.1371 0 60 0C26.8629 0 0 26.8629 0 60C0 93.1371 26.8629 120 60 120Z" fill="#170A22"/>
<mask id="mask0_4401_8825" style="mask-type:luminance" maskUnits="userSpaceOnUse" x="6" y="6" width="108" height="108">
<path d="M112.934 60.0002C112.934 89.2349 89.2344 112.934 59.9997 112.934C30.7649 112.934 7.06543 89.2349 7.06543 60.0002C7.06543 30.7654 30.7649 7.06592 59.9997 7.06592C89.2344 7.06592 112.934 30.7654 112.934 60.0002Z" fill="white" stroke="white"/>
</mask>
<g mask="url(#mask0_4401_8825)">
<path d="M83.1479 46.3525C83.1479 59.0088 72.888 69.2688 60.2317 69.2688C47.5754 69.2688 37.3154 59.0088 37.3154 46.3525C37.3154 33.6962 47.5754 23.4363 60.2317 23.4363C72.888 23.4363 83.1479 33.6962 83.1479 46.3525Z" fill="url(#paint0_radial_4401_8825)" stroke="url(#paint1_radial_4401_8825)"/>
</g>
<mask id="mask1_4401_8825" style="mask-type:luminance" maskUnits="userSpaceOnUse" x="6" y="6" width="108" height="108">
<path d="M112.934 60.0002C112.934 89.2349 89.2344 112.934 59.9997 112.934C30.7649 112.934 7.06543 89.2349 7.06543 60.0002C7.06543 30.7654 30.7649 7.06592 59.9997 7.06592C89.2344 7.06592 112.934 30.7654 112.934 60.0002Z" fill="white" stroke="white"/>
</mask>
<g mask="url(#mask1_4401_8825)">
<path d="M61.5793 78.8682L61.5625 78.3684L61.5793 78.8682C84.2439 78.1084 97.3658 94.9277 103.68 106.49C104.829 108.594 104.765 111.032 103.877 112.941C102.99 114.851 101.314 116.171 99.2667 116.171H24.6623C22.4629 116.171 20.6805 114.727 19.7653 112.667C18.8504 110.607 18.8408 108 20.1497 105.809L20.1497 105.809C26.7118 94.8194 39.7033 79.6006 61.5793 78.8682Z" fill="url(#paint2_radial_4401_8825)" stroke="url(#paint3_radial_4401_8825)"/>
</g>
<defs>
<radialGradient id="paint0_radial_4401_8825" cx="0" cy="0" r="1" gradientUnits="userSpaceOnUse" gradientTransform="translate(55.5871 46.6733) rotate(-146.16) scale(20.7364 148.646)">
<stop stop-color="#FF2CDF"/>
<stop offset="1" stop-color="#482C7B"/>
</radialGradient>
<radialGradient id="paint1_radial_4401_8825" cx="0" cy="0" r="1" gradientUnits="userSpaceOnUse" gradientTransform="translate(55.5871 46.6733) rotate(-146.16) scale(20.7364 148.646)">
<stop stop-color="#FF2CDF"/>
<stop offset="1" stop-color="#482C7B"/>
</radialGradient>
<radialGradient id="paint2_radial_4401_8825" cx="0" cy="0" r="1" gradientUnits="userSpaceOnUse" gradientTransform="translate(53.2593 97.7698) rotate(-163.441) scale(33.1598 140.391)">
<stop stop-color="#FF2CDF"/>
<stop offset="1" stop-color="#482C7B"/>
</radialGradient>
<radialGradient id="paint3_radial_4401_8825" cx="0" cy="0" r="1" gradientUnits="userSpaceOnUse" gradientTransform="translate(53.2593 97.7698) rotate(-163.441) scale(33.1598 140.391)">
<stop stop-color="#FF2CDF"/>
<stop offset="1" stop-color="#482C7B"/>
</radialGradient>
</defs>
</svg>
