<svg width="33" height="32" viewBox="0 0 33 32" fill="none" xmlns="http://www.w3.org/2000/svg">
<g clip-path="url(#clip0_4401_8727)">
<path d="M32.5 16C32.5 7.16352 25.3365 0 16.5 0C7.66352 0 0.5 7.16352 0.5 16C0.5 23.5034 5.66608 29.7997 12.635 31.529V20.8896H9.33584V16H12.635V13.8931C12.635 8.44736 15.0997 5.9232 20.4462 5.9232C21.46 5.9232 23.2091 6.12224 23.9246 6.32064V10.7526C23.547 10.713 22.891 10.6931 22.0763 10.6931C19.453 10.6931 18.4392 11.687 18.4392 14.2707V16H23.6654L22.7675 20.8896H18.4392V31.8829C26.3618 30.9261 32.5006 24.1805 32.5006 16H32.5Z" fill="#0866FF"/>
<path d="M22.7666 20.8895L23.6646 15.9999H18.4383V14.2706C18.4383 11.6869 19.4521 10.693 22.0754 10.693C22.8902 10.693 23.5462 10.7129 23.9238 10.7525V6.32054C23.2082 6.1215 21.4591 5.9231 20.4454 5.9231C15.0988 5.9231 12.6342 8.44726 12.6342 13.893V15.9999H9.33496V20.8895H12.6342V31.5289C13.8719 31.8361 15.1666 31.9999 16.4991 31.9999C17.1551 31.9999 17.8022 31.9596 18.4377 31.8828V20.8895H22.766H22.7666Z" fill="white"/>
</g>
<defs>
<clipPath id="clip0_4401_8727">
<rect width="32" height="32" fill="white" transform="translate(0.5)"/>
</clipPath>
</defs>
</svg>
