<svg width="33" height="32" viewBox="0 0 33 32" fill="none" xmlns="http://www.w3.org/2000/svg">
<g clip-path="url(#clip0_4401_8726)">
<path d="M16.4995 13.0908V19.2872H25.1104C24.7323 21.2799 23.5976 22.9673 21.8958 24.1018L27.0885 28.1309C30.114 25.3383 31.8594 21.2364 31.8594 16.3637C31.8594 15.2292 31.7576 14.1382 31.5685 13.091L16.4995 13.0908Z" fill="#4285F4"/>
<path d="M7.53298 19.0452L6.36183 19.9417L2.21631 23.1707C4.84903 28.3925 10.245 31.9998 16.4995 31.9998C20.8194 31.9998 24.4411 30.5743 27.0885 28.1308L21.8958 24.1016C20.4703 25.0616 18.6521 25.6435 16.4995 25.6435C12.3395 25.6435 8.80507 22.8363 7.53952 19.0544L7.53298 19.0452Z" fill="#34A853"/>
<path d="M2.21624 8.8291C1.12539 10.9817 0.5 13.4109 0.5 15.9999C0.5 18.589 1.12539 21.0181 2.21624 23.1707C2.21624 23.1852 7.53997 19.0398 7.53997 19.0398C7.21997 18.0798 7.03082 17.0617 7.03082 15.9997C7.03082 14.9378 7.21997 13.9197 7.53997 12.9597L2.21624 8.8291Z" fill="#FBBC05"/>
<path d="M16.4998 6.3709C18.8562 6.3709 20.9507 7.18543 22.6234 8.75636L27.2052 4.1746C24.427 1.58555 20.8199 0 16.4998 0C10.2453 0 4.84903 3.59272 2.21631 8.8291L7.53987 12.96C8.80525 9.17815 12.3398 6.3709 16.4998 6.3709Z" fill="#EA4335"/>
</g>
<defs>
<clipPath id="clip0_4401_8726">
<rect width="32" height="32" fill="white" transform="translate(0.5)"/>
</clipPath>
</defs>
</svg>
