<svg width="32" height="32" viewBox="0 0 32 32" fill="none" xmlns="http://www.w3.org/2000/svg">
<path d="M4.81616 12.3132H27.188V23.9856H4.81616V12.3132Z" fill="#EEEDED"/>
<path d="M5.50464 18.2725H7.63904V22.8875H5.50464V18.2725Z" fill="white"/>
<path d="M5.71851 18.4797H6.44171V19.4161H5.71851V18.4797Z" fill="#4A8BC9"/>
<path d="M6.70288 18.4797H7.42608V19.4161H6.70288V18.4797Z" fill="#4A8BC9"/>
<path d="M5.71851 19.5674H6.44171V20.5037H5.71851V19.5674Z" fill="#4A8BC9"/>
<path d="M6.70288 19.5674H7.42608V20.5037H6.70288V19.5674Z" fill="#4A8BC9"/>
<path d="M5.71851 20.6553H6.44171V21.5916H5.71851V20.6553Z" fill="#4A8BC9"/>
<path d="M6.70288 20.6553H7.42608V21.5916H6.70288V20.6553Z" fill="#4A8BC9"/>
<path d="M5.71851 21.7441H6.44171V22.6805H5.71851V21.7441Z" fill="#4A8BC9"/>
<path d="M6.70288 21.7441H7.42608V22.6805H6.70288V21.7441Z" fill="#4A8BC9"/>
<path d="M8.27026 18.2725H10.4047V22.8875H8.27026V18.2725Z" fill="white"/>
<path d="M8.48389 18.4797H9.20709V19.4161H8.48389V18.4797Z" fill="#4A8BC9"/>
<path d="M9.46753 18.4797H10.1907V19.4161H9.46753V18.4797Z" fill="#4A8BC9"/>
<path d="M8.48389 19.5674H9.20709V20.5037H8.48389V19.5674Z" fill="#4A8BC9"/>
<path d="M9.46753 19.5674H10.1907V20.5037H9.46753V19.5674Z" fill="#4A8BC9"/>
<path d="M8.48389 20.6553H9.20709V21.5916H8.48389V20.6553Z" fill="#4A8BC9"/>
<path d="M9.46753 20.6553H10.1907V21.5916H9.46753V20.6553Z" fill="#4A8BC9"/>
<path d="M8.48389 21.7441H9.20709V22.6805H8.48389V21.7441Z" fill="#4A8BC9"/>
<path d="M9.46753 21.7441H10.1907V22.6805H9.46753V21.7441Z" fill="#4A8BC9"/>
<path d="M21.5994 18.2725H23.7338V22.8875H21.5994V18.2725Z" fill="white"/>
<path d="M21.8132 18.4797H22.5364V19.4161H21.8132V18.4797Z" fill="#4A8BC9"/>
<path d="M22.7976 18.4797H23.5208V19.4161H22.7976V18.4797Z" fill="#4A8BC9"/>
<path d="M21.8132 19.5674H22.5364V20.5037H21.8132V19.5674Z" fill="#4A8BC9"/>
<path d="M22.7976 19.5674H23.5208V20.5037H22.7976V19.5674Z" fill="#4A8BC9"/>
<path d="M21.8132 20.6553H22.5364V21.5916H21.8132V20.6553Z" fill="#4A8BC9"/>
<path d="M22.7976 20.6553H23.5208V21.5916H22.7976V20.6553Z" fill="#4A8BC9"/>
<path d="M21.8132 21.7441H22.5364V22.6805H21.8132V21.7441Z" fill="#4A8BC9"/>
<path d="M22.7976 21.7441H23.5208V22.6805H22.7976V21.7441Z" fill="#4A8BC9"/>
<path d="M24.365 18.2725H26.4994V22.8875H24.365V18.2725Z" fill="white"/>
<path d="M24.5786 18.4797H25.3018V19.4161H24.5786V18.4797Z" fill="#4A8BC9"/>
<path d="M25.5623 18.4797H26.2855V19.4161H25.5623V18.4797Z" fill="#4A8BC9"/>
<path d="M24.5786 19.5674H25.3018V20.5037H24.5786V19.5674Z" fill="#4A8BC9"/>
<path d="M25.5623 19.5674H26.2855V20.5037H25.5623V19.5674Z" fill="#4A8BC9"/>
<path d="M24.5786 20.6553H25.3018V21.5916H24.5786V20.6553Z" fill="#4A8BC9"/>
<path d="M25.5623 20.6553H26.2855V21.5916H25.5623V20.6553Z" fill="#4A8BC9"/>
<path d="M24.5786 21.7441H25.3018V22.6805H24.5786V21.7441Z" fill="#4A8BC9"/>
<path d="M25.5623 21.7441H26.2855V22.6805H25.5623V21.7441Z" fill="#4A8BC9"/>
<path d="M27.9942 12.3379L4.0061 12.3205L4.0751 12.242L4.44809 11.8186L4.65756 11.5806L5.02793 11.1571L5.2374 10.9193L5.61039 10.4958L5.81986 10.2578L6.18774 9.83669L6.39721 9.5988L6.7702 9.17532L6.97967 8.93743L7.3526 8.51388L7.55951 8.27599L7.9325 7.8525L8.14197 7.61455L8.51497 7.19112L8.72188 6.95317L9.01564 6.62012L22.9929 6.63016L23.2862 6.96367L23.4928 7.20194L23.8651 7.62594L24.0743 7.86415L24.4466 8.28821L24.6532 8.52642L25.0256 8.95042L25.2347 9.18863L25.6071 9.61269L25.8162 9.8509L26.1834 10.2725L26.3925 10.5107L26.7649 10.9348L26.974 11.173L27.3438 11.597L27.553 11.8352L27.9253 12.2593L27.9942 12.3379Z" fill="#D25C59"/>
<path d="M23.4927 7.20189L8.51489 7.19108L8.7218 6.95312L23.2862 6.96362L23.4927 7.20189Z" fill="#BB302F"/>
<path d="M24.0744 7.8641L7.93262 7.85245L8.14209 7.6145L23.8652 7.62589L24.0744 7.8641Z" fill="#BB302F"/>
<path d="M24.6531 8.5268L7.35254 8.51426L7.55945 8.27637L24.4466 8.28859L24.6531 8.5268Z" fill="#BB302F"/>
<path d="M25.2348 9.1887L6.77026 9.17539L6.97974 8.9375L25.0256 8.95049L25.2348 9.1887Z" fill="#BB302F"/>
<path d="M25.8162 9.85097L6.18774 9.83677L6.39722 9.59888L25.6071 9.61276L25.8162 9.85097Z" fill="#BB302F"/>
<path d="M26.3925 10.5107L5.61035 10.4958L5.81982 10.2578L26.1834 10.2725L26.3925 10.5107Z" fill="#BB302F"/>
<path d="M26.9739 11.1727L5.02783 11.1568L5.2373 10.9189L26.7648 10.9345L26.9739 11.1727Z" fill="#BB302F"/>
<path d="M27.5529 11.8356L4.448 11.819L4.65747 11.5811L27.3437 11.5974L27.5529 11.8356Z" fill="#BB302F"/>
<path d="M27.9942 12.3378L4.0061 12.3205L4.0751 12.2419L27.9253 12.2592L27.9942 12.3378Z" fill="#BB302F"/>
<path d="M20.9111 11.946V23.9754H11.0933V11.946L16.0022 7.43457L20.9111 11.946Z" fill="#CDCCCC"/>
<path d="M22.5867 12.7185L21.6075 13.3547L16.0011 8.20064L10.3947 13.3547L9.41553 12.7185L16.0011 6.66675L22.5867 12.7185Z" fill="#676767"/>
<path d="M13.9885 17.0557H18.016V24.0112H13.9885V17.0557Z" fill="#B78E66"/>
<path d="M13.9885 20.0391H18.016V21.0151H13.9885V20.0391Z" fill="#B78E66"/>
<path d="M14.2048 20.0391H17.7997V21.0151H14.2048V20.0391Z" fill="#B78E66"/>
<path d="M17.7409 17.4031V19.9994H14.2634V17.4031H17.7409ZM14.2634 23.6628V21.0529H17.7409V23.6628H14.2634Z" fill="#A77A4E"/>
<path d="M17.6039 20.5276C17.6039 20.65 17.5044 20.7533 17.3781 20.7533C17.2519 20.7533 17.1523 20.65 17.1523 20.5276C17.1523 20.4013 17.2519 20.3018 17.3781 20.3018C17.5044 20.3018 17.6039 20.4013 17.6039 20.5276Z" fill="#A77A4E"/>
<path d="M24.4964 15.7778H24.0631C24.0703 15.8921 24.1084 16.2491 24.3346 16.2491C24.399 16.2567 24.5035 16.2609 24.5655 16.1968C24.6863 16.076 24.4809 15.8041 24.3679 15.9849L24.3179 15.9539C24.5366 15.5999 24.9598 16.3656 24.3298 16.3086C24.137 16.3086 24.056 16.1086 24.0251 15.9492C23.9894 16.1086 23.9108 16.3086 23.7133 16.3086C23.6406 16.3062 23.5204 16.3205 23.4395 16.2396C23.3399 16.1342 23.3899 15.9387 23.5252 15.8801C23.6085 15.8468 23.6799 15.873 23.7323 15.9539L23.6799 15.9849C23.6442 15.9277 23.6038 15.9134 23.549 15.9349C23.4966 15.9587 23.4585 16.011 23.449 16.0754C23.4155 16.3216 23.9526 16.4212 23.9847 15.7778H23.5395L23.011 14.4494H23.0181L23.4514 13.8161H23.8061C23.8061 13.6947 23.906 13.5947 24.0275 13.5947C24.1489 13.5947 24.2465 13.6947 24.2465 13.8161H24.6012L25.0345 14.4494H25.0249L24.4964 15.7778Z" fill="#EBB760"/>
<path d="M24.2036 13.7849C24.2036 13.9063 24.106 14.0039 23.9846 14.0039C23.8632 14.0039 23.7632 13.9063 23.7632 13.7849C23.7632 13.6634 23.8632 13.5635 23.9846 13.5635C24.106 13.5634 24.2036 13.6634 24.2036 13.7849Z" fill="#535352"/>
<path d="M24.9915 14.4165H22.9751L23.4084 13.7832H24.5582L24.9915 14.4165Z" fill="#676767"/>
<path d="M23.9875 15.7129C23.9875 15.7129 23.9931 16.2484 24.2933 16.2459C24.2933 16.2459 24.6174 16.2883 24.5854 16.0386C24.5658 15.8859 24.3915 15.789 24.2993 15.9375" stroke="#676767" stroke-width="2.56" stroke-miterlimit="10"/>
<path d="M23.9748 15.7129C23.9748 15.7129 23.9692 16.2484 23.669 16.2459C23.669 16.2459 23.345 16.2883 23.377 16.0386C23.3861 15.9678 23.4282 15.9027 23.4941 15.8753C23.5459 15.8538 23.6108 15.8533 23.6631 15.9375" stroke="#676767" stroke-width="2.56" stroke-miterlimit="10"/>
<path d="M24.9825 14.418L24.4536 15.7464H23.496L22.967 14.418H24.9825Z" fill="#FCCC67"/>
<path d="M8.59335 15.7778H8.16007C8.16724 15.8921 8.20532 16.2491 8.43149 16.2491C8.49588 16.2567 8.60039 16.2609 8.66241 16.1968C8.78317 16.076 8.5778 15.8041 8.46484 15.9849L8.41485 15.9539C8.62465 15.6143 9.03098 16.311 8.48391 16.311C8.46625 16.311 8.43937 16.3098 8.42676 16.3086C8.23393 16.3086 8.15297 16.1086 8.12205 15.9492C8.00679 16.4639 7.44583 16.3725 7.48641 16.0682C7.49831 15.9825 7.55066 15.9111 7.62209 15.8801C7.70541 15.8468 7.77684 15.873 7.82919 15.9539L7.77684 15.9849C7.74113 15.9277 7.70068 15.9134 7.64589 15.9349C7.59354 15.9587 7.5554 16.011 7.54593 16.0754C7.51239 16.3216 8.04954 16.4212 8.08161 15.7778H7.63642L7.10791 14.4494H7.11501L7.54829 13.8161H7.90298C7.90298 13.6947 8.00295 13.5947 8.12442 13.5947C8.24583 13.5947 8.34343 13.6947 8.34343 13.8161H8.69812L9.1314 14.4494H9.12186L8.59335 15.7778Z" fill="#EBB760"/>
<path d="M8.30056 13.7849C8.30056 13.9063 8.20296 14.0039 8.08155 14.0039C7.96014 14.0039 7.86011 13.9063 7.86011 13.7849C7.86011 13.6634 7.96008 13.5635 8.08155 13.5635C8.20296 13.5634 8.30056 13.6634 8.30056 13.7849Z" fill="#535352"/>
<path d="M9.08865 14.4165H7.07227L7.50555 13.7832H8.65537L9.08865 14.4165Z" fill="#676767"/>
<path d="M8.08447 15.7129C8.08447 15.7129 8.09004 16.2484 8.39026 16.2459C8.39026 16.2459 8.7143 16.2883 8.6823 16.0386C8.66271 15.8859 8.48844 15.789 8.39622 15.9375" stroke="#676767" stroke-width="2.56" stroke-miterlimit="10"/>
<path d="M8.07173 15.7129C8.07173 15.7129 8.06616 16.2484 7.76593 16.2459C7.76593 16.2459 7.4419 16.2883 7.4739 16.0386C7.48299 15.9678 7.5251 15.9027 7.59102 15.8753C7.64286 15.8538 7.70776 15.8533 7.75998 15.9375" stroke="#676767" stroke-width="2.56" stroke-miterlimit="10"/>
<path d="M9.07945 14.418L8.55049 15.7464H7.59292L7.06396 14.418H9.07945Z" fill="#FCCC67"/>
<path d="M31.3278 24.1925V25.1621C31.3278 25.282 31.2306 25.3792 31.1106 25.3792H0.868275C0.748339 25.3792 0.651123 25.282 0.651123 25.1621V24.1925C0.651123 24.0726 0.748339 23.9753 0.868275 23.9753H31.1107C31.2306 23.9754 31.3278 24.0726 31.3278 24.1925Z" fill="#9CCC65"/>
<path d="M6.64339 23.6462C6.64339 24.1321 5.88007 24.3566 5.50419 23.9598C5.36589 24.0101 5.12147 24.0086 4.909 23.9086C4.34522 24.4306 3.28979 24.0977 3.28979 23.4158C3.28979 22.7608 4.25427 22.432 4.83859 22.859C5.27501 22.619 5.81632 22.7765 5.99699 23.1278C6.06106 23.1506 6.64339 23.1519 6.64339 23.6462Z" fill="#8EC163"/>
<path d="M6.62742 23.7342C6.56214 24.1784 5.86083 24.3631 5.49462 24.0221C5.41129 24.0333 5.15574 24.0982 4.91862 23.9966C4.3192 24.4734 3.28662 24.1178 3.28662 23.4333C3.34832 24.1001 4.36073 24.3573 4.85462 23.8494L4.89302 23.8109C4.9576 23.8298 5.08272 23.9695 5.53302 23.907L5.54582 23.9197C5.84995 24.2767 6.52438 24.1591 6.62742 23.7342Z" fill="#7BA452"/>
<path d="M27.8789 24.1646C27.6741 24.1646 27.4949 24.0814 27.3797 23.9598C27.2414 24.0101 26.997 24.0086 26.7845 23.9086C26.2207 24.4306 25.1653 24.0977 25.1653 23.4158C25.1653 22.7608 26.1298 22.432 26.7141 22.859C27.1505 22.619 27.6918 22.7765 27.8725 23.1278H27.8789C28.7296 23.1278 28.7228 24.1646 27.8789 24.1646Z" fill="#8EC163"/>
<path d="M28.5092 23.7343C28.4298 24.1844 27.7326 24.3599 27.37 24.0223C27.2899 24.0324 27.0351 24.1001 26.794 23.9967C26.1797 24.4853 25.1324 24.0987 25.1684 23.4143C25.1925 24.0913 26.2292 24.3646 26.73 23.8496L26.7684 23.8112C27.1852 23.9897 27.1708 23.9072 27.3572 23.9072H27.4084C27.4799 23.9519 27.6193 24.2018 28.0484 24.1184C28.2468 24.0863 28.4516 23.9455 28.5092 23.7343Z" fill="#7BA452"/>
<path d="M3.02222 21.8174H3.40558V23.9755H3.02222V21.8174Z" fill="#A77A4E"/>
<path d="M3.796 20.5502C3.796 21.4227 3.5334 22.1264 3.21833 22.1264C3.14832 22.1264 3.06947 22.0888 3.00822 22.0232C2.7894 21.798 2.63184 21.2257 2.63184 20.5502C2.63184 19.6776 2.89449 18.9646 3.21833 18.9646C3.22704 18.9646 3.2358 18.9646 3.24457 18.9739C3.55094 19.0022 3.796 19.7058 3.796 20.5502Z" fill="#8EC163"/>
<path d="M3.62972 20.4564C3.62972 21.3289 3.36713 22.0326 3.05206 22.0326C3.03452 22.0326 3.02576 22.0326 3.00822 22.0232C2.7894 21.798 2.63184 21.2257 2.63184 20.5502C2.63184 19.6776 2.89449 18.9646 3.21833 18.9646C3.22704 18.9646 3.2358 18.9646 3.24457 18.9739C3.46339 19.1804 3.62972 19.7715 3.62972 20.4564Z" fill="#9CCC65"/>
<path d="M1.05029 21.8174H1.43365V23.9755H1.05029V21.8174Z" fill="#A77A4E"/>
<path d="M1.82407 20.5502C1.82407 21.4227 1.56148 22.1264 1.24641 22.1264C1.17639 22.1264 1.09754 22.0888 1.0363 22.0232C0.817416 21.798 0.659912 21.2257 0.659912 20.5502C0.659912 19.6776 0.922568 18.9646 1.24641 18.9646C1.25511 18.9646 1.26388 18.9646 1.27265 18.9739C1.57902 19.0022 1.82407 19.7058 1.82407 20.5502Z" fill="#8EC163"/>
<path d="M1.65774 20.4564C1.65774 21.3289 1.39514 22.0326 1.08007 22.0326C1.06254 22.0326 1.05377 22.0326 1.03623 22.0232C0.817416 21.798 0.659912 21.2257 0.659912 20.5502C0.659912 19.6776 0.922568 18.9646 1.24641 18.9646C1.25511 18.9646 1.26388 18.9646 1.27265 18.9739C1.49146 19.1804 1.65774 19.7715 1.65774 20.4564Z" fill="#9CCC65"/>
<path d="M1.87524 21.1514H2.58052V23.9757H1.87524V21.1514Z" fill="#A77A4E"/>
<path d="M3.29779 19.493C3.29779 20.6349 2.81516 21.5558 2.23609 21.5558C2.10739 21.5558 1.96256 21.5066 1.84992 21.4207C1.44774 21.126 1.1582 20.377 1.1582 19.493C1.1582 18.3511 1.64089 17.418 2.23609 17.418C2.25209 17.418 2.26822 17.418 2.28428 17.4302C2.84742 17.4671 3.29779 18.3879 3.29779 19.493Z" fill="#7BA452"/>
<path d="M2.99212 19.3702C2.99212 20.512 2.5095 21.4329 1.93043 21.4329C1.89824 21.4329 1.88211 21.4329 1.84992 21.4207C1.44774 21.126 1.1582 20.377 1.1582 19.493C1.1582 18.3511 1.64089 17.418 2.23609 17.418C2.25209 17.418 2.26822 17.418 2.28428 17.4302C2.68652 17.7003 2.99212 18.4738 2.99212 19.3702Z" fill="#8EC163"/>
<path d="M30.5754 21.8174H30.9588V23.9755H30.5754V21.8174Z" fill="#A77A4E"/>
<path d="M31.349 20.5502C31.349 21.4227 31.0864 22.1264 30.7713 22.1264C30.7013 22.1264 30.6224 22.0888 30.5612 22.0232C30.3424 21.798 30.1848 21.2257 30.1848 20.5502C30.1848 19.6776 30.4475 18.9646 30.7713 18.9646C30.78 18.9646 30.7888 18.9646 30.7976 18.9739C31.1039 19.0022 31.349 19.7058 31.349 20.5502Z" fill="#8EC163"/>
<path d="M31.1827 20.4564C31.1827 21.3289 30.9201 22.0326 30.605 22.0326C30.5875 22.0326 30.5787 22.0326 30.5612 22.0232C30.3424 21.798 30.1848 21.2257 30.1848 20.5502C30.1848 19.6776 30.4475 18.9646 30.7713 18.9646C30.78 18.9646 30.7888 18.9646 30.7976 18.9739C31.0164 19.1804 31.1827 19.7715 31.1827 20.4564Z" fill="#9CCC65"/>
<path d="M28.6035 21.8174H28.9869V23.9755H28.6035V21.8174Z" fill="#A77A4E"/>
<path d="M29.3773 20.5502C29.3773 21.4227 29.1147 22.1264 28.7996 22.1264C28.7296 22.1264 28.6508 22.0888 28.5895 22.0232C28.3707 21.798 28.2131 21.2257 28.2131 20.5502C28.2131 19.6776 28.4758 18.9646 28.7996 18.9646C28.8083 18.9646 28.8171 18.9646 28.8259 18.9739C29.1322 19.0022 29.3773 19.7058 29.3773 20.5502Z" fill="#8EC163"/>
<path d="M29.211 20.4564C29.211 21.3289 28.9484 22.0326 28.6334 22.0326C28.6158 22.0326 28.6071 22.0326 28.5895 22.0232C28.3707 21.798 28.2131 21.2257 28.2131 20.5502C28.2131 19.6776 28.4758 18.9646 28.7996 18.9646C28.8083 18.9646 28.8171 18.9646 28.8259 18.9739C29.0448 19.1804 29.211 19.7715 29.211 20.4564Z" fill="#9CCC65"/>
<path d="M29.4287 21.1514H30.134V23.9757H29.4287V21.1514Z" fill="#A77A4E"/>
<path d="M30.8508 19.493C30.8508 20.6349 30.3681 21.5558 29.7891 21.5558C29.6604 21.5558 29.5155 21.5066 29.4029 21.4207C29.0007 21.126 28.7112 20.377 28.7112 19.493C28.7112 18.3511 29.1939 17.418 29.7891 17.418C29.8051 17.418 29.8212 17.418 29.8373 17.4302C30.4004 17.4671 30.8508 18.3879 30.8508 19.493Z" fill="#7BA452"/>
<path d="M30.5451 19.3702C30.5451 20.512 30.0625 21.4329 29.4834 21.4329C29.4512 21.4329 29.4351 21.4329 29.4029 21.4207C29.0007 21.126 28.7112 20.377 28.7112 19.493C28.7112 18.3511 29.1939 17.418 29.7891 17.418C29.8051 17.418 29.8212 17.418 29.8373 17.4302C30.2394 17.7003 30.5451 18.4738 30.5451 19.3702Z" fill="#8EC163"/>
<path d="M14.1628 14.6865V11.9926C14.1628 11.0081 14.9308 10.2025 15.9108 10.1586C15.922 10.1553 15.9648 10.1543 16.0014 10.1543C16.0376 10.1543 16.0804 10.1553 16.1166 10.1611C16.5475 10.1773 16.976 10.3677 17.2977 10.6945C17.6464 11.038 17.8396 11.4999 17.8396 11.9926V14.6864L14.1628 14.6865Z" fill="white"/>
<path d="M17.6268 11.9929V14.4739H14.3755V11.9929C14.3755 11.1205 15.0606 10.4098 15.9203 10.3715C15.9458 10.3672 15.9756 10.3672 16.0011 10.3672C16.0266 10.3672 16.0564 10.3672 16.0819 10.3715C16.4989 10.3885 16.8735 10.5673 17.1458 10.8439C17.4438 11.1375 17.6268 11.5461 17.6268 11.9929Z" fill="#4A8BC9"/>
<path d="M14.377 13.3508H17.625V13.5115H14.377V13.3508Z" fill="white"/>
<path d="M16.0821 10.3715V14.4739H15.9204V10.3715C15.9459 10.3672 15.9757 10.3672 16.0012 10.3672C16.0268 10.3672 16.0566 10.3673 16.0821 10.3715Z" fill="white"/>
</svg>
