<svg width="32" height="32" viewBox="0 0 32 32" fill="none" xmlns="http://www.w3.org/2000/svg">
<path d="M3.05713 20.659L4.007 23.5089C4.05807 23.662 4.20132 23.7653 4.36275 23.7653L25.8363 23.7655C28.1238 23.7655 29.9781 21.9112 29.9781 19.6238V18.5884L31.0135 18.5883V17.553C31.0135 16.9811 30.5499 16.5176 29.978 16.5176H14.4466C13.8747 16.5176 13.4111 16.9812 13.4111 17.5531V18.5883L3.05713 20.659Z" fill="#E4F1FB"/>
<path d="M31.0135 17.5531C31.0135 16.9812 30.5499 16.5176 29.978 16.5176H28.728C29.2999 16.5176 29.7635 16.9811 29.7635 17.5531V18.5883L28.728 18.5885V19.6238C28.728 21.9111 26.8739 23.7653 24.5867 23.7656H25.8363C28.1237 23.7656 29.978 21.9113 29.978 19.6238V18.5885L31.0135 18.5883V17.5531Z" fill="#C9E3F7"/>
<path d="M19.1064 11.3404L17.3006 9.53488C17.1541 9.38844 16.9167 9.38844 16.7703 9.53488L16.0001 10.3051L16 12.8936H19.1064V11.3404Z" fill="#C0E3F0"/>
<path d="M17.3005 9.53488C17.1541 9.38844 16.9166 9.38844 16.7702 9.53488L16.4104 9.89469L17.8563 11.3404V12.8937H19.1063V11.3405L17.3005 9.53488Z" fill="#A3CFE3"/>
<path d="M29.4605 16.5174H17.0354C16.4635 16.5174 15.9999 16.9811 15.9999 17.5529V18.5882L16 19.6234C16 20.1953 15.5363 20.6589 14.9645 20.6589H2.02183C1.44995 20.6589 0.986328 20.1954 0.986328 19.6234V18.5882L3.57483 15.4819H5.64564L14.9645 13.4112L20.9929 10.397C21.1076 10.3397 21.2436 10.3449 21.3535 10.4109L26.3541 13.4111C28.0696 13.4111 29.4604 14.8018 29.4604 16.5174V16.5174H29.4605Z" fill="#3BCD92"/>
<path d="M5.64552 15.4824H3.57471V11.7158C3.57471 11.5087 3.74258 11.3408 3.94971 11.3408H5.64552V15.4824Z" fill="#C0E3F0"/>
<path d="M5.64551 11.3408H3.92676V15.4827H5.64551V11.3408Z" fill="#A3CFE3"/>
<path d="M14.9641 10.3052C15.536 10.3052 15.9996 9.84167 15.9996 9.26981C15.9996 8.69796 15.536 8.23438 14.9641 8.23438C14.3923 8.23438 13.9287 8.69796 13.9287 9.26981C13.9287 9.84167 14.3923 10.3052 14.9641 10.3052Z" fill="#57555C"/>
<path d="M5.64551 13.4114H14.9644V15.1072C14.9644 15.3143 14.7965 15.4822 14.5894 15.4822H5.64551V13.4114Z" fill="#57555C"/>
<path d="M13.7144 13.4114V15.1072C13.7144 15.3143 13.5465 15.4822 13.3394 15.4822H14.5895C14.7966 15.4822 14.9645 15.3143 14.9645 15.1072V13.4114H13.7144Z" fill="#4B494F"/>
<path d="M8.2832 13.4111V13.929C8.2832 14.1879 8.49308 14.3978 8.75195 14.3978C9.01083 14.3978 9.2207 14.1879 9.2207 13.929V13.4111H8.2832Z" fill="#4B494F"/>
<path d="M11.3894 13.4111V13.929C11.3894 14.1879 11.5993 14.3978 11.8582 14.3978C12.117 14.3978 12.3269 14.1879 12.3269 13.929V13.4111H11.3894Z" fill="#4B494F"/>
<path d="M14.75 17.5531V18.5883L14.75 19.6236C14.75 20.1955 14.2865 20.6591 13.7146 20.6591H14.9646C15.5365 20.6591 16 20.1955 16 19.6236L16 18.5883V17.5531C16 16.9812 16.4636 16.5176 17.0355 16.5176H15.7855C15.2136 16.5176 14.75 16.9812 14.75 17.5531Z" fill="#36A882"/>
<path d="M26.3542 13.411L21.3537 10.4109C21.2437 10.3449 21.1077 10.3397 20.993 10.397L20.4954 10.6459L25.1042 13.411C26.8198 13.411 28.2105 14.8018 28.2105 16.5174V16.5175H29.4605V16.5174C29.4605 14.8018 28.0698 13.411 26.3542 13.411Z" fill="#36A882"/>
<path d="M6.11426 15.4817V10.3047C6.11426 10.0457 5.90438 9.83594 5.64551 9.83594C5.38663 9.83594 5.17676 10.0457 5.17676 10.3047V15.4817H6.11426Z" fill="#FEB756"/>
<path d="M31.5312 18.1201H0.46875C0.209875 18.1201 0 18.3299 0 18.5889C0 18.8477 0.209875 19.0576 0.46875 19.0576H31.5312C31.7901 19.0576 32 18.8477 32 18.5889C32 18.3299 31.7901 18.1201 31.5312 18.1201Z" fill="#57555C"/>
<path d="M3.7312 22.6807H8.75201C9.01089 22.6807 9.22076 22.4709 9.22076 22.2119C9.22076 21.953 9.01089 21.7432 8.75201 21.7432H3.4187L3.7312 22.6807Z" fill="#C9E3F7"/>
</svg>
