<svg width="24" height="24" viewBox="0 0 24 24" fill="none" xmlns="http://www.w3.org/2000/svg">
<rect width="24" height="24" rx="12" fill="url(#paint0_linear_4401_8117)"/>
<g clip-path="url(#clip0_4401_8117)">
<path d="M16.773 6.47704C18.0123 7.71614 18.7211 9.38863 18.7495 11.1409C18.7779 12.8931 18.1237 14.5877 16.9253 15.8663L16.773 16.0238L13.5908 19.2053C13.187 19.6088 12.6449 19.8438 12.0744 19.8626C11.5039 19.8814 10.9475 19.6826 10.518 19.3065L10.41 19.2053L7.22704 16.023C5.96116 14.7572 5.25 13.0403 5.25 11.25C5.25 9.45982 5.96116 7.74292 7.22704 6.47704C8.49292 5.21116 10.2098 4.5 12 4.5C13.7903 4.5 15.5072 5.21116 16.773 6.47704ZM12 9.00004C11.7046 9.00004 11.412 9.05824 11.139 9.17131C10.866 9.28439 10.618 9.45012 10.4091 9.65905C10.2001 9.86798 10.0344 10.116 9.92131 10.389C9.80824 10.662 9.75004 10.9546 9.75004 11.25C9.75004 11.5455 9.80824 11.8381 9.92131 12.1111C10.0344 12.3841 10.2001 12.6321 10.4091 12.841C10.618 13.05 10.866 13.2157 11.139 13.3288C11.412 13.4418 11.7046 13.5 12 13.5C12.5968 13.5 13.1691 13.263 13.591 12.841C14.013 12.4191 14.25 11.8468 14.25 11.25C14.25 10.6533 14.013 10.081 13.591 9.65905C13.1691 9.23709 12.5968 9.00004 12 9.00004Z" fill="url(#paint1_radial_4401_8117)"/>
</g>
<defs>
<linearGradient id="paint0_linear_4401_8117" x1="12" y1="0" x2="12" y2="24" gradientUnits="userSpaceOnUse">
<stop stop-color="#4A3CB0" stop-opacity="0.5"/>
<stop offset="1" stop-color="#844AB3"/>
</linearGradient>
<radialGradient id="paint1_radial_4401_8117" cx="0" cy="0" r="1" gradientUnits="userSpaceOnUse" gradientTransform="translate(10.6613 12.2871) rotate(-142.656) scale(6.24522 46.6755)">
<stop stop-color="#FF2CDF"/>
<stop offset="1" stop-color="#482C7B"/>
</radialGradient>
<clipPath id="clip0_4401_8117">
<rect width="18" height="18" fill="white" transform="translate(3 3)"/>
</clipPath>
</defs>
</svg>
