<svg width="40" height="40" viewBox="0 0 40 40" fill="none" xmlns="http://www.w3.org/2000/svg">
<circle cx="20" cy="20" r="20" fill="url(#paint0_linear_4401_9881)" fill-opacity="0.1"/>
<path d="M24.1667 11.6667H15.8334C13.5334 11.6667 11.6667 13.5251 11.6667 15.8167V20.8001V21.6334C11.6667 23.9251 13.5334 25.7834 15.8334 25.7834H17.0834C17.3084 25.7834 17.6084 25.9334 17.75 26.1167L19 27.7751C19.55 28.5084 20.45 28.5084 21 27.7751L22.25 26.1167C22.4084 25.9084 22.6584 25.7834 22.9167 25.7834H24.1667C26.4667 25.7834 28.3334 23.9251 28.3334 21.6334V15.8167C28.3334 13.5251 26.4667 11.6667 24.1667 11.6667ZM16.6667 20.0001C16.2 20.0001 15.8334 19.6251 15.8334 19.1667C15.8334 18.7084 16.2084 18.3334 16.6667 18.3334C17.125 18.3334 17.5 18.7084 17.5 19.1667C17.5 19.6251 17.1334 20.0001 16.6667 20.0001ZM20 20.0001C19.5334 20.0001 19.1667 19.6251 19.1667 19.1667C19.1667 18.7084 19.5417 18.3334 20 18.3334C20.4584 18.3334 20.8334 18.7084 20.8334 19.1667C20.8334 19.6251 20.4667 20.0001 20 20.0001ZM23.3334 20.0001C22.8667 20.0001 22.5 19.6251 22.5 19.1667C22.5 18.7084 22.875 18.3334 23.3334 18.3334C23.7917 18.3334 24.1667 18.7084 24.1667 19.1667C24.1667 19.6251 23.8 20.0001 23.3334 20.0001Z" fill="url(#paint1_radial_4401_9881)"/>
<defs>
<linearGradient id="paint0_linear_4401_9881" x1="1.59681" y1="1.23253e-06" x2="45.8785" y2="8.18101" gradientUnits="userSpaceOnUse">
<stop stop-color="#009F93"/>
<stop offset="1" stop-color="#0074B6"/>
</linearGradient>
<radialGradient id="paint1_radial_4401_9881" cx="0" cy="0" r="1" gradientUnits="userSpaceOnUse" gradientTransform="translate(18.3471 20.11) rotate(-146.173) scale(7.37851 52.8817)">
<stop stop-color="#FF2CDF"/>
<stop offset="1" stop-color="#482C7B"/>
</radialGradient>
</defs>
</svg>
