<svg width="32" height="31" viewBox="0 0 32 31" fill="none" xmlns="http://www.w3.org/2000/svg">
<path fill-rule="evenodd" clip-rule="evenodd" d="M28.2881 11.0181C27.9681 11.5798 27.6979 12.0634 27.5414 12.3692C27.513 12.4261 27.4632 12.4758 27.4063 12.5114C27.2499 12.5967 27.0579 12.5327 26.9725 12.3763C26.8161 12.0705 26.5388 11.587 26.2259 11.0181C25.017 8.8634 23.1396 5.50696 23.1396 4.17718C23.1396 3.0394 23.6019 2.00829 24.3485 1.26162C25.0952 0.514957 26.1263 0.0527344 27.2641 0.0527344C28.4019 0.0527344 29.433 0.514957 30.1796 1.26162C30.9263 2.00829 31.3885 3.0394 31.3885 4.17718C31.3814 5.50696 29.497 8.8634 28.2881 11.0181Z" fill="#EF5350"/>
<path fill-rule="evenodd" clip-rule="evenodd" d="M27.2571 1.04126C28.1246 1.04126 28.9068 1.3897 29.4686 1.95859C30.0375 2.52748 30.386 3.3097 30.386 4.17015C30.386 5.03059 30.0375 5.81993 29.4686 6.3817C28.8997 6.94348 28.1175 7.29904 27.2571 7.29904C26.3966 7.29904 25.6073 6.95059 25.0455 6.3817C24.4837 5.81282 24.1282 5.03059 24.1282 4.17015C24.1282 3.3097 24.4766 2.52037 25.0455 1.95859C25.6144 1.39682 26.3895 1.04126 27.2571 1.04126Z" fill="#C24441"/>
<path fill-rule="evenodd" clip-rule="evenodd" d="M28.9991 2.42748C28.5511 1.97948 27.9395 1.70215 27.2569 1.70215C26.5742 1.70215 25.9555 1.98659 25.5146 2.42748C25.0666 2.87548 24.7893 3.48704 24.7893 4.1697C24.7893 4.85237 25.0666 5.47104 25.5146 5.91193C25.9626 6.35993 26.5742 6.63726 27.2569 6.63726C27.9395 6.63726 28.5582 6.35993 28.9991 5.91193C29.4471 5.47104 29.7244 4.85237 29.7244 4.17682C29.7244 3.50126 29.4471 2.87548 28.9991 2.42748Z" fill="#F5F5F5"/>
<path fill-rule="evenodd" clip-rule="evenodd" d="M14.1584 8.9563C13.9735 9.2763 13.8241 9.55363 13.7317 9.73141C13.7175 9.76696 13.689 9.79541 13.6535 9.80963C13.561 9.85941 13.4544 9.82385 13.4046 9.73141C13.3121 9.56074 13.1557 9.28341 12.9779 8.9563C12.2881 7.72607 11.2144 5.80607 11.2144 5.04518C11.2144 4.39096 11.4775 3.80785 11.9041 3.38118C12.3308 2.95452 12.921 2.69141 13.5681 2.69141C14.2152 2.69141 14.8055 2.95452 15.2321 3.38118C15.6588 3.80785 15.9219 4.39807 15.9219 5.04518C15.9219 5.80607 14.8481 7.72607 14.1584 8.9563Z" fill="#EF5350"/>
<path fill-rule="evenodd" clip-rule="evenodd" d="M13.5681 3.25293C14.0588 3.25293 14.5139 3.45204 14.8339 3.77915C15.1539 4.10626 15.3601 4.54715 15.3601 5.04493C15.3601 5.5356 15.161 5.99071 14.8339 6.31071C14.5068 6.63782 14.0588 6.83693 13.5681 6.83693C13.0775 6.83693 12.6223 6.63782 12.3023 6.31071C11.9752 5.9836 11.7761 5.54271 11.7761 5.04493C11.7761 4.55426 11.9752 4.09915 12.3023 3.77915C12.6295 3.45915 13.0703 3.25293 13.5681 3.25293Z" fill="#C24441"/>
<path fill-rule="evenodd" clip-rule="evenodd" d="M14.5637 4.04916C14.3077 3.79316 13.9522 3.63672 13.5682 3.63672C13.177 3.63672 12.8286 3.79316 12.5726 4.04916C12.3166 4.30516 12.1602 4.66072 12.1602 5.04472C12.1602 5.43583 12.3166 5.78427 12.5726 6.04027C12.8286 6.29627 13.1842 6.45272 13.5682 6.45272C13.9593 6.45272 14.3077 6.29627 14.5637 6.04027C14.8197 5.78427 14.9762 5.42872 14.9762 5.04472C14.9762 4.65361 14.8197 4.30516 14.5637 4.04916Z" fill="#F5F5F5"/>
<path fill-rule="evenodd" clip-rule="evenodd" d="M4.2596 8.34421C4.03916 8.73532 3.84715 9.07666 3.74049 9.28999C3.71915 9.33266 3.6836 9.36821 3.64804 9.38955C3.53427 9.44644 3.40627 9.40377 3.34227 9.2971C3.22849 9.08377 3.0436 8.74955 2.82315 8.35133C1.96982 6.84377 0.661377 4.4971 0.661377 3.56555C0.661377 2.7691 0.981377 2.05088 1.5076 1.53177C2.03382 1.01266 2.75204 0.685547 3.54138 0.685547C4.33071 0.685547 5.05604 1.00555 5.57515 1.53177C6.09427 2.05799 6.42138 2.7691 6.42138 3.56555C6.41427 4.4971 5.10582 6.84377 4.2596 8.34421Z" fill="#EF5350"/>
<path fill-rule="evenodd" clip-rule="evenodd" d="M3.5413 1.375C4.14574 1.375 4.6933 1.61678 5.09152 2.015C5.48974 2.41322 5.73152 2.96078 5.73152 3.56522C5.73152 4.16967 5.48974 4.71722 5.09152 5.11544C4.6933 5.51367 4.14574 5.75544 3.5413 5.75544C2.93685 5.75544 2.3893 5.51367 1.99107 5.11544C1.59285 4.71722 1.35107 4.16967 1.35107 3.56522C1.35107 2.96078 1.59285 2.41322 1.99107 2.015C2.3893 1.61678 2.93685 1.375 3.5413 1.375Z" fill="#C24441"/>
<path fill-rule="evenodd" clip-rule="evenodd" d="M4.75745 2.34962C4.44456 2.03673 4.01078 1.84473 3.54145 1.84473C3.065 1.84473 2.63833 2.03673 2.32545 2.34962C2.01256 2.6625 1.82056 3.08917 1.82056 3.56562C1.82056 4.04206 2.01256 4.46873 2.32545 4.78162C2.63833 5.0945 3.065 5.2865 3.54145 5.2865C4.01789 5.2865 4.44456 5.0945 4.75745 4.78162C5.07033 4.47584 5.26233 4.04206 5.26233 3.56562C5.26233 3.08917 5.07033 2.65539 4.75745 2.34962Z" fill="#F5F5F5"/>
<path d="M20.8357 27.8074C20.6508 27.8074 20.5015 27.6581 20.5015 27.4732V15.0928C20.5015 14.9079 20.6508 14.7585 20.8357 14.7585H28.3664C28.5086 14.7585 28.6366 14.851 28.6792 14.979L31.1681 21.123C31.1824 21.1657 31.1895 21.2083 31.1895 21.251V22.5594H30.393C30.009 22.5594 29.689 22.8723 29.689 23.2634C29.689 23.6474 30.0019 23.9674 30.393 23.9674H31.1895V27.4803C31.1895 27.6652 31.0401 27.8145 30.8552 27.8145C27.513 27.8074 24.1779 27.8074 20.8357 27.8074Z" fill="#EF5350"/>
<path d="M29.0705 27.8074H22.6136C22.5994 27.7007 22.5994 27.5869 22.5994 27.4732C22.5994 26.6127 22.9407 25.7878 23.5523 25.1763C24.1638 24.5647 24.9816 24.2234 25.8491 24.2234C26.7167 24.2234 27.5345 24.5647 28.146 25.1763C28.7576 25.7878 29.0989 26.6056 29.0989 27.4732C29.0847 27.5869 29.0847 27.7007 29.0705 27.8074Z" fill="#9E3735"/>
<path d="M28.4018 27.8076H23.2889C23.2747 27.7009 23.2676 27.5872 23.2676 27.4734C23.2676 26.7623 23.5591 26.1152 24.0214 25.6529C24.4907 25.1836 25.1307 24.8992 25.8418 24.8992C26.5529 24.8992 27.2 25.1907 27.6622 25.6529C28.1316 26.1223 28.416 26.7623 28.416 27.4734C28.4231 27.5872 28.416 27.7009 28.4018 27.8076Z" fill="#EF5350"/>
<path d="M22.8125 16.7429H27.0294C27.1716 16.7429 27.2996 16.8354 27.3423 16.9634L29.1841 21.5145C29.2552 21.6851 29.1699 21.8771 28.9992 21.9483C28.9565 21.9625 28.9139 21.9696 28.8712 21.9696H22.8054C22.6205 21.9696 22.4712 21.8203 22.4712 21.6354V17.07C22.4783 16.8851 22.6276 16.7429 22.8125 16.7429Z" fill="#9E3735"/>
<path d="M24.0072 22.6443C24.192 22.6443 24.3414 22.7936 24.3414 22.9785C24.3414 23.1634 24.192 23.3127 24.0072 23.3127H22.8125C22.6276 23.3127 22.4783 23.1634 22.4783 22.9785C22.4783 22.7936 22.6276 22.6443 22.8125 22.6443H24.0072Z" fill="#9E3735"/>
<path d="M0.974365 11.5371C0.974365 11.3522 1.1237 11.2029 1.30859 11.2029H20.8357C21.0206 11.2029 21.1699 11.3522 21.1699 11.5371V13.4784V15.0855V27.466C21.1699 27.6509 21.0206 27.8002 20.8357 27.8002H1.30859C1.1237 27.8002 0.974365 27.6509 0.974365 27.466C0.974365 22.1682 0.974365 16.8491 0.974365 11.5371Z" fill="#729BC6"/>
<path d="M16.5192 27.8074H10.0623C10.0481 27.7007 10.0481 27.5869 10.0481 27.4732C10.0481 26.6127 10.3895 25.7878 11.001 25.1763C11.6126 24.5647 12.4303 24.2234 13.2979 24.2234C14.1583 24.2234 14.9832 24.5647 15.5948 25.1763C16.2063 25.7878 16.5477 26.6056 16.5477 27.4732C16.5335 27.5869 16.5263 27.7007 16.5192 27.8074ZM9.79924 27.8074H3.34235C3.32813 27.7007 3.32812 27.5869 3.32812 27.4732C3.32812 26.6127 3.66946 25.7878 4.28101 25.1763C4.89257 24.5647 5.71035 24.2234 6.5779 24.2234C7.44546 24.2234 8.26324 24.5647 8.87479 25.1763C9.48635 25.7878 9.82768 26.6056 9.82768 27.4732C9.81346 27.5869 9.80635 27.7007 9.79924 27.8074Z" fill="#4C6682"/>
<path d="M0.974365 22.2607H21.1628V23.9105H0.974365V22.2607Z" fill="#4C6682"/>
<path d="M24.0216 25.6529C24.4909 25.1836 25.1309 24.8992 25.842 24.8992C26.5532 24.8992 27.2003 25.1907 27.6625 25.6529C28.1318 26.1223 28.4163 26.7623 28.4163 27.4734C28.4163 28.1845 28.1247 28.8316 27.6625 29.2938C27.1932 29.7632 26.5532 30.0476 25.842 30.0476C25.1309 30.0476 24.4838 29.7561 24.0216 29.2938C23.5523 28.8245 23.2678 28.1845 23.2678 27.4734C23.2678 26.7694 23.5523 26.1223 24.0216 25.6529Z" fill="#2E343A"/>
<path d="M11.4632 25.6529C11.9326 25.1836 12.5726 24.8992 13.2837 24.8992C13.9948 24.8992 14.6419 25.1907 15.1041 25.6529C15.5664 26.1152 15.8579 26.7623 15.8579 27.4734C15.8579 28.1845 15.5664 28.8316 15.1041 29.2938C14.6348 29.7632 13.9948 30.0476 13.2837 30.0476C12.5726 30.0476 11.9255 29.7561 11.4632 29.2938C11.001 28.8316 10.7095 28.1845 10.7095 27.4734C10.7095 26.7694 11.001 26.1223 11.4632 25.6529Z" fill="#2E343A"/>
<path d="M4.74328 25.6529C5.21261 25.1836 5.85261 24.8992 6.56372 24.8992C7.27484 24.8992 7.92195 25.1907 8.38417 25.6529C8.84639 26.1152 9.13795 26.7623 9.13795 27.4734C9.13795 28.1845 8.84639 28.8316 8.38417 29.2938C7.91484 29.7632 7.27484 30.0476 6.56372 30.0476C5.85261 30.0476 5.2055 29.7561 4.74328 29.2938C4.28106 28.8316 3.9895 28.1845 3.9895 27.4734C3.9895 26.7694 4.28106 26.1223 4.74328 25.6529Z" fill="#2E343A"/>
<path d="M6.57089 25.8308C6.11578 25.8308 5.70333 26.0157 5.41178 26.3144C5.12022 26.613 4.92822 27.0255 4.92822 27.4806C4.92822 27.9357 5.11311 28.3481 5.41178 28.6468C5.71044 28.9455 6.12289 29.1304 6.57089 29.1304C7.026 29.1304 7.43844 28.9455 7.73711 28.6468C8.03578 28.3481 8.22067 27.9357 8.22067 27.4806C8.22067 27.0255 8.03578 26.613 7.73711 26.3144C7.43844 26.0157 7.026 25.8308 6.57089 25.8308Z" fill="#A2ABB8"/>
<path d="M5.99492 26.9046C6.14425 26.7553 6.34337 26.6628 6.57092 26.6628C6.79848 26.6628 6.99759 26.7553 7.14692 26.9046C7.29625 27.054 7.38159 27.2531 7.38159 27.4806C7.38159 27.7082 7.28914 27.9073 7.14692 28.0566C7.0047 28.206 6.79848 28.2984 6.57092 28.2984C6.34337 28.2984 6.14425 28.206 5.99492 28.0566C5.84559 27.9073 5.76025 27.7082 5.76025 27.4806C5.76025 27.2531 5.84559 27.054 5.99492 26.9046Z" fill="#E6E6E6"/>
<path d="M26.809 17.4041H23.1467V21.3081H28.3805L26.809 17.4041Z" fill="#BFDDFF"/>
<path d="M26.3967 17.4041H25.9131L23.666 21.3081H24.1425L26.3967 17.4041Z" fill="white"/>
<path d="M25.1309 21.3077H25.6144L27.2429 18.4846L27.0437 17.9939L25.1309 21.3077Z" fill="white"/>
<path d="M31.1894 21.8979V22.5664H30.3929C30.0089 22.5664 29.6889 22.8793 29.6889 23.2704C29.6889 23.6544 30.0018 23.9744 30.3929 23.9744H31.1894V24.6428H30.3929C29.6391 24.6428 29.0276 24.0313 29.0276 23.2775C29.0276 22.5237 29.6391 21.9122 30.3929 21.9122L31.1894 21.8979Z" fill="#9E3735"/>
<path d="M31.1894 22.5596V23.9605H30.393C30.009 23.9605 29.689 23.6476 29.689 23.2565C29.689 22.8725 30.0019 22.5525 30.393 22.5525L31.1894 22.5596Z" fill="#FFE26F"/>
<path d="M13.2909 25.8308C12.8358 25.8308 12.4233 26.0157 12.1247 26.3144C11.826 26.613 11.6411 27.0255 11.6411 27.4806C11.6411 27.9357 11.826 28.3481 12.1247 28.6468C12.4233 28.9455 12.8358 29.1304 13.2909 29.1304C13.746 29.1304 14.1584 28.9455 14.4571 28.6468C14.7558 28.3481 14.9407 27.9357 14.9407 27.4806C14.9407 27.0255 14.7558 26.613 14.4571 26.3144C14.1584 26.0157 13.746 25.8308 13.2909 25.8308Z" fill="#A2ABB8"/>
<path d="M12.7149 26.9046C12.8643 26.7553 13.0634 26.6628 13.2909 26.6628C13.5185 26.6628 13.7176 26.7553 13.8669 26.9046C14.0163 27.054 14.1087 27.2531 14.1087 27.4806C14.1087 27.7082 14.0163 27.9073 13.8669 28.0566C13.7176 28.206 13.5185 28.2984 13.2909 28.2984C13.0634 28.2984 12.8643 28.206 12.7149 28.0566C12.5656 27.9073 12.4731 27.7082 12.4731 27.4806C12.4731 27.2531 12.5656 27.054 12.7149 26.9046Z" fill="#E6E6E6"/>
<path d="M25.8419 25.8308C25.3868 25.8308 24.9744 26.0157 24.6757 26.3144C24.377 26.613 24.1921 27.0255 24.1921 27.4806C24.1921 27.9357 24.377 28.3481 24.6757 28.6468C24.9744 28.9455 25.3868 29.1304 25.8419 29.1304C26.297 29.1304 26.7095 28.9455 27.0081 28.6468C27.3068 28.3481 27.4917 27.9357 27.4917 27.4806C27.4917 27.0255 27.3068 26.613 27.0081 26.3144C26.7095 26.0157 26.297 25.8308 25.8419 25.8308Z" fill="#A2ABB8"/>
<path d="M25.273 26.9046C25.4224 26.7553 25.6215 26.6628 25.849 26.6628C26.0766 26.6628 26.2757 26.7553 26.425 26.9046C26.5744 27.054 26.6668 27.2531 26.6668 27.4806C26.6668 27.7082 26.5744 27.9073 26.425 28.0566C26.2757 28.206 26.0766 28.2984 25.849 28.2984C25.6215 28.2984 25.4224 28.206 25.273 28.0566C25.1237 27.9073 25.0312 27.7082 25.0312 27.4806C25.0312 27.2531 25.1237 27.054 25.273 26.9046Z" fill="#E6E6E6"/>
<path d="M5.8455 12.2556H16.2917C16.5691 12.2556 16.8251 12.3694 17.0099 12.5543C17.1948 12.7392 17.3086 12.9952 17.3086 13.2725V20.1987C17.3086 20.4761 17.1948 20.7321 17.0099 20.917C16.8251 21.1018 16.5691 21.2156 16.2917 21.2156H5.8455C5.56817 21.2156 5.31217 21.1018 5.12728 20.917C4.94239 20.7321 4.82861 20.4761 4.82861 20.1987V13.2725C4.82861 12.9952 4.94239 12.7392 5.12728 12.5543C5.31217 12.3694 5.56817 12.2556 5.8455 12.2556Z" fill="#FFD47D"/>
<path d="M7.26758 12.2556H9.60713V16.9063C9.60713 17.0201 9.51469 17.1196 9.3938 17.1196C9.31558 17.1196 9.25158 17.0841 9.21602 17.0201L8.4338 16.0174L7.64447 17.0343C7.57336 17.1267 7.43825 17.1409 7.3458 17.0698C7.28891 17.0272 7.26758 16.9632 7.26758 16.9063V12.2556Z" fill="#EDAF54"/>
<path d="M12.5371 12.2556H14.8767V16.9063C14.8767 17.0201 14.7842 17.1196 14.6633 17.1196C14.5851 17.1196 14.5211 17.0841 14.4856 17.0201L13.7033 16.0174L12.914 17.0343C12.8429 17.1267 12.7078 17.1409 12.6153 17.0698C12.5584 17.0272 12.5371 16.9632 12.5371 16.9063V12.2556Z" fill="#EDAF54"/>
<path d="M6.44283 17.738H8.00727C8.12105 17.738 8.2206 17.8305 8.2206 17.9514V19.9567C8.2206 20.0705 8.12816 20.17 8.00727 20.17H6.44283C6.32905 20.17 6.22949 20.0776 6.22949 19.9567V17.9514C6.2366 17.8376 6.32905 17.738 6.44283 17.738Z" fill="#D78E44"/>
<path d="M9.33003 17.738H10.8945C11.0083 17.738 11.1078 17.8305 11.1078 17.9514V19.9567C11.1078 20.0705 11.0154 20.17 10.8945 20.17H9.33003C9.21625 20.17 9.1167 20.0776 9.1167 19.9567V17.9514C9.12381 17.8376 9.21625 17.738 9.33003 17.738Z" fill="#D78E44"/>
<path d="M12.217 18.1647C12.1032 18.1647 12.0037 18.0723 12.0037 17.9514C12.0037 17.8305 12.0961 17.738 12.217 17.738H15.6943C15.8081 17.738 15.9077 17.8305 15.9077 17.9514C15.9077 18.0723 15.8152 18.1647 15.6943 18.1647H12.217Z" fill="#EDAF54"/>
<path d="M12.217 19.1676C12.1032 19.1676 12.0037 19.0752 12.0037 18.9543C12.0037 18.8405 12.0961 18.741 12.217 18.741H15.6943C15.8081 18.741 15.9077 18.8334 15.9077 18.9543C15.9077 19.0681 15.8152 19.1676 15.6943 19.1676H12.217Z" fill="#EDAF54"/>
<path d="M12.217 20.1696C12.1032 20.1696 12.0037 20.0771 12.0037 19.9563C12.0037 19.8425 12.0961 19.7429 12.217 19.7429H15.6943C15.8081 19.7429 15.9077 19.8354 15.9077 19.9563C15.9077 20.07 15.8152 20.1696 15.6943 20.1696H12.217Z" fill="#EDAF54"/>
<path fill-rule="evenodd" clip-rule="evenodd" d="M12.3591 1.46073C12.4729 1.61007 12.4373 1.8234 12.288 1.93718C12.1386 2.05096 11.9253 2.0154 11.8115 1.86607C11.6266 1.61007 11.4133 1.40385 11.1857 1.23318C10.7377 0.898957 10.2186 0.735401 9.70663 0.735401C9.19463 0.735401 8.68263 0.898957 8.22752 1.23318C7.99997 1.40385 7.78663 1.61007 7.60175 1.86607C7.48797 2.0154 7.27463 2.05096 7.1253 1.93718C6.97597 1.8234 6.94041 1.61007 7.05419 1.46073C7.28175 1.15496 7.54486 0.891846 7.82219 0.685623C8.39108 0.258957 9.0453 0.0527344 9.69952 0.0527344C10.3537 0.0527344 11.008 0.266068 11.5769 0.685623C11.8684 0.891846 12.1315 1.14785 12.3591 1.46073Z" fill="#EF5350"/>
<path fill-rule="evenodd" clip-rule="evenodd" d="M17.3441 1.99402C17.1592 1.95847 17.0454 1.77358 17.081 1.58869C17.1165 1.4038 17.3014 1.29002 17.4863 1.32558C17.5005 1.32558 21.4756 2.13625 22.0516 7.0998C22.073 7.28469 21.9378 7.45536 21.753 7.47669C21.5681 7.49802 21.3974 7.36291 21.3761 7.17802C20.857 2.70514 17.3583 1.99402 17.3441 1.99402Z" fill="#EF5350"/>
</svg>
