<svg width="87" height="87" viewBox="0 0 87 87" fill="none" xmlns="http://www.w3.org/2000/svg">
<path d="M87 46.3886C87 46.6154 87 46.8422 87 47.068C86.8115 48.2612 86.8315 49.4698 86.7195 50.6693C86.4599 53.4518 85.653 56.0986 84.6894 58.6998C82.9953 63.272 80.6145 67.4625 77.5024 71.2178C73.71 75.7945 69.2499 79.567 63.9583 82.3322C60.4281 84.1774 56.7386 85.5609 52.845 86.408C51.1264 86.7823 49.375 86.7632 47.6381 86.9162C47.4468 86.9326 47.241 86.8543 47.068 87C46.8412 87 46.6144 87 46.3885 87C46.2182 86.8752 46.0488 86.8752 45.8785 87C44.2928 87 42.7063 87 41.1206 87C41.0259 86.8971 40.9002 86.9199 40.7809 86.9153C40.6616 86.9199 40.5359 86.8971 40.4412 87C40.2144 87 39.9876 87 39.7617 87C38.6269 86.7969 37.472 86.8361 36.3308 86.7167C32.981 86.3661 29.8106 85.3505 26.7231 84.0627C22.4142 82.2648 18.486 79.8484 14.944 76.7891C9.58318 72.1577 5.52021 66.5909 2.83069 60.0478C1.33247 56.4037 0.193995 52.6521 0.150277 48.6483C0.144813 48.1291 0.174869 47.5817 0 47.068C0 46.6145 0 46.1618 0 45.7082C0.134795 45.3685 0.134795 45.0288 0 44.689C0 43.8957 0 43.1034 0 42.31C0.134795 41.9703 0.134795 41.6306 0 41.2909C0 40.8373 0 40.3846 0 39.9311C0.188531 38.7361 0.173959 37.5256 0.279609 36.3243C0.522786 33.5673 1.33246 30.9488 2.27876 28.3731C3.71141 24.4758 5.64135 20.8317 8.13049 17.5082C10.9603 13.7302 14.2773 10.435 18.1344 7.68984C22.3486 4.68968 26.9644 2.55751 31.9245 1.11937C34.3326 0.421698 36.7953 0.214947 39.2754 0.0837929C39.4393 0.074685 39.616 0.129333 39.7599 0C39.9867 0 40.2135 0 40.4393 0C40.6097 0.124779 40.7791 0.124779 40.9494 0C41.2326 0 41.5159 0 41.7991 0C42.1953 0.135708 42.5924 0.135708 42.9886 0C44.0078 0 45.0278 0 46.047 0C46.2173 0.124779 46.3867 0.124779 46.557 0C46.7273 0 46.8967 0 47.0671 0C48.3358 0.193999 49.6245 0.152103 50.895 0.299651C54.1237 0.674899 57.1949 1.64672 60.1813 2.88357C64.686 4.74888 68.8091 7.26359 72.444 10.5151C76.3294 13.9907 79.61 17.9727 82.0891 22.5832C84.0573 26.2427 85.53 30.0835 86.4053 34.1521C86.7759 35.8726 86.7605 37.624 86.9135 39.3618C86.9299 39.5531 86.8515 39.7598 86.9973 39.932C86.9973 40.1023 86.9973 40.2717 86.9973 40.442C86.8943 40.5367 86.9171 40.6624 86.9126 40.7817C86.9171 40.9011 86.8943 41.0267 86.9973 41.1215C86.9973 42.7072 86.9973 44.2938 86.9973 45.8795C86.8761 46.0489 86.8761 46.2183 87 46.3886Z" fill="#042927"/>
<path d="M87 46.3886C87 46.6154 87 46.8422 87 47.068C86.8115 48.2612 86.8315 49.4698 86.7195 50.6693C86.4599 53.4518 85.653 56.0986 84.6894 58.6998C82.9953 63.272 80.6145 67.4625 77.5024 71.2178C73.71 75.7945 69.2499 79.567 63.9583 82.3322C60.4281 84.1774 56.7386 85.5609 52.845 86.408C51.1264 86.7823 49.375 86.7632 47.6381 86.9162C47.4468 86.9326 47.241 86.8543 47.068 87C46.8412 87 46.6144 87 46.3885 87C46.2182 86.8752 46.0488 86.8752 45.8785 87C44.2928 87 42.7063 87 41.1206 87C41.0259 86.8971 40.9002 86.9199 40.7809 86.9153C40.6616 86.9199 40.5359 86.8971 40.4412 87C40.2144 87 39.9876 87 39.7617 87C38.6269 86.7969 37.472 86.8361 36.3308 86.7167C32.981 86.3661 29.8106 85.3505 26.7231 84.0627C22.4142 82.2648 18.486 79.8484 14.944 76.7891C9.58318 72.1577 5.52021 66.5909 2.83069 60.0478C1.33247 56.4037 0.193995 52.6521 0.150277 48.6483C0.144813 48.1291 0.174869 47.5817 0 47.068C0 46.6145 0 46.1618 0 45.7082C0.134795 45.3685 0.134795 45.0288 0 44.689C0 43.8957 0 43.1034 0 42.31C0.134795 41.9703 0.134795 41.6306 0 41.2909C0 40.8373 0 40.3846 0 39.9311C0.188531 38.7361 0.173959 37.5256 0.279609 36.3243C0.522786 33.5673 1.33246 30.9488 2.27876 28.3731C3.71141 24.4758 5.64135 20.8317 8.13049 17.5082C10.9603 13.7302 14.2773 10.435 18.1344 7.68984C22.3486 4.68968 26.9644 2.55751 31.9245 1.11937C34.3326 0.421698 36.7953 0.214947 39.2754 0.0837929C39.4393 0.074685 39.616 0.129333 39.7599 0C39.9867 0 40.2135 0 40.4393 0C40.6097 0.124779 40.7791 0.124779 40.9494 0C41.2326 0 41.5159 0 41.7991 0C42.1953 0.135708 42.5924 0.135708 42.9886 0C44.0078 0 45.0278 0 46.047 0C46.2173 0.124779 46.3867 0.124779 46.557 0C46.7273 0 46.8967 0 47.0671 0C48.3358 0.193999 49.6245 0.152103 50.895 0.299651C54.1237 0.674899 57.1949 1.64672 60.1813 2.88357C64.686 4.74888 68.8091 7.26359 72.444 10.5151C76.3294 13.9907 79.61 17.9727 82.0891 22.5832C84.0573 26.2427 85.53 30.0835 86.4053 34.1521C86.7759 35.8726 86.7605 37.624 86.9135 39.3618C86.9299 39.5531 86.8515 39.7598 86.9973 39.932C86.9973 40.1023 86.9973 40.2717 86.9973 40.442C86.8943 40.5367 86.9171 40.6624 86.9126 40.7817C86.9171 40.9011 86.8943 41.0267 86.9973 41.1215C86.9973 42.7072 86.9973 44.2938 86.9973 45.8795C86.8761 46.0489 86.8761 46.2183 87 46.3886Z" fill="#170A22"/>
<path d="M27.7175 39.5903C28.8505 39.612 29.7233 40.1216 30.4966 40.8919C33.2766 43.6646 36.0849 46.4101 38.8467 49.2009C39.3579 49.7177 39.6136 49.7567 40.1549 49.2153C46.8534 42.5304 53.5848 35.8789 60.297 29.2075C61.2848 28.2263 62.3995 27.7031 63.8156 27.9791C66.4778 28.4978 67.6464 31.571 65.9866 33.7046C65.7629 33.9924 65.4927 34.2477 65.2325 34.5057C57.6713 42.0054 50.1082 49.5041 42.5451 57.001C40.4581 59.0704 38.5472 59.0622 36.4465 56.9793C32.7151 53.2797 28.9738 49.5901 25.2561 45.8769C23.1983 43.8221 23.9396 40.5978 26.6366 39.7776C26.9835 39.6735 27.356 39.6518 27.7175 39.5903Z" fill="url(#paint0_radial_4401_8593)"/>
<defs>
<radialGradient id="paint0_radial_4401_8593" cx="0" cy="0" r="1" gradientUnits="userSpaceOnUse" gradientTransform="translate(41.1827 43.4364) rotate(-154.296) scale(17.4199 105.506)">
<stop stop-color="#FF2CDF"/>
<stop offset="1" stop-color="#482C7B"/>
</radialGradient>
</defs>
</svg>
