<svg width="32" height="32" viewBox="0 0 32 32" fill="none" xmlns="http://www.w3.org/2000/svg">
<path d="M0.333252 22.4301L2.99992 21.9167V23.7034H0.333252V22.4301Z" fill="#5C5E88"/>
<path d="M15.69 12.6133H9.08996C8.8364 12.6126 8.5896 12.6951 8.38732 12.848C8.18505 13.0009 8.03845 13.2159 7.96996 13.46L5.70996 21.6167H24L16.5666 13C16.4563 12.877 16.3211 12.7789 16.17 12.7122C16.0188 12.6455 15.8552 12.6118 15.69 12.6133Z" fill="#718CD8"/>
<path d="M16.5698 13.0004L20.4665 17.5237H15.9298L14.3331 15.6671C14.2239 15.5408 14.0888 15.4394 13.937 15.3698C13.7851 15.3002 13.6201 15.2641 13.4531 15.2637H7.47314L7.96981 13.4637C8.03864 13.2204 8.18487 13.0062 8.38636 12.8534C8.58784 12.7006 8.83362 12.6177 9.08648 12.6171H15.6898C15.8553 12.6147 16.0194 12.6476 16.1712 12.7137C16.3229 12.7798 16.4588 12.8776 16.5698 13.0004Z" fill="#B3F5F6"/>
<path d="M16.1766 13.5799C16.094 13.4843 15.9916 13.4079 15.8764 13.3561C15.7613 13.3043 15.6362 13.2783 15.5099 13.2799H13.1366C12.9821 13.3069 12.8421 13.3876 12.7412 13.5077C12.6403 13.6278 12.585 13.7797 12.585 13.9365C12.585 14.0934 12.6403 14.2452 12.7412 14.3653C12.8421 14.4854 12.9821 14.5661 13.1366 14.5932H13.4433C13.7066 14.5935 13.9667 14.6505 14.206 14.7604C14.4453 14.8703 14.6581 15.0304 14.8299 15.2299L15.8299 16.3932C15.9548 16.5362 16.1083 16.6514 16.2806 16.7313C16.4529 16.8111 16.6401 16.8538 16.8299 16.8565H17.9199C18.0137 16.8572 18.1056 16.8307 18.1846 16.7804C18.2637 16.7301 18.3265 16.658 18.3656 16.5728C18.4047 16.4876 18.4183 16.3929 18.4049 16.3001C18.3915 16.2074 18.3516 16.1205 18.2899 16.0499L16.1766 13.5799Z" fill="white"/>
<path d="M9.08648 12.613H11.3331C11.0802 12.6131 10.8341 12.6958 10.6325 12.8487C10.4309 13.0015 10.2848 13.2161 10.2165 13.4597L9.71981 15.2597H7.47314L7.96981 13.4597C8.03864 13.2164 8.18487 13.0021 8.38636 12.8494C8.58784 12.6966 8.83362 12.6136 9.08648 12.613Z" fill="#C3CEF2"/>
<path d="M24.0033 21.6166H23.2V20.6899L24.0033 21.6166Z" fill="white"/>
<path d="M23.9998 21.95H23.1998C23.1114 21.95 23.0266 21.9149 22.9641 21.8524C22.9016 21.7898 22.8665 21.7051 22.8665 21.6166V20.69C22.8658 20.6216 22.8862 20.5546 22.9249 20.4981C22.9635 20.4417 23.0187 20.3985 23.0827 20.3745C23.1468 20.3505 23.2167 20.3467 23.283 20.3638C23.3493 20.3809 23.4087 20.418 23.4531 20.47L24.2531 21.4C24.2946 21.4484 24.3212 21.5077 24.33 21.5708C24.3388 21.6339 24.3292 21.6982 24.3026 21.7561C24.2759 21.814 24.2332 21.863 24.1796 21.8974C24.1259 21.9317 24.0635 21.95 23.9998 21.95Z" fill="#302D3D"/>
<path d="M5.0799 17.5232H23.1999V21.6665H5.14657L4.36657 18.4332C4.33971 18.325 4.33788 18.2121 4.3612 18.1031C4.38452 17.9941 4.43239 17.8918 4.50116 17.8041C4.56993 17.7164 4.6578 17.6455 4.75808 17.5968C4.85837 17.5481 4.96843 17.523 5.0799 17.5232Z" fill="#C3CEF2"/>
<path d="M23.9999 18.95V21.6666H11.4065L10.8199 19.7333C10.7929 19.6433 10.7873 19.5483 10.8035 19.4557C10.8197 19.3632 10.8574 19.2757 10.9134 19.2003C10.9694 19.1249 11.0422 19.0635 11.1261 19.0212C11.21 18.9789 11.3026 18.9568 11.3965 18.9566L23.9999 18.95Z" fill="#6273C4"/>
<path d="M23.9999 18.95V21.6666H15.6966L15.1099 19.7333C15.0829 19.6433 15.0773 19.5483 15.0935 19.4557C15.1098 19.3632 15.1474 19.2757 15.2034 19.2003C15.2594 19.1249 15.3323 19.0635 15.4161 19.0212C15.5 18.9789 15.5926 18.9568 15.6866 18.9566L23.9999 18.95Z" fill="#535AA1"/>
<path d="M23.4032 17.03L20.4032 20.95C20.2341 21.1718 20.0164 21.3518 19.7667 21.476C19.517 21.6003 19.2421 21.6655 18.9632 21.6667H10.4232C10.2494 21.6669 10.0796 21.6145 9.93622 21.5163C9.79282 21.4181 9.68252 21.2788 9.61988 21.1167L9.22988 20.1167C9.16776 19.9539 9.0577 19.8139 8.91425 19.7151C8.7708 19.6163 8.60073 19.5633 8.42654 19.5633H2.57321C2.49811 19.5634 2.42395 19.5801 2.35605 19.6122C2.28815 19.6443 2.22817 19.691 2.18041 19.749C2.13264 19.8069 2.09826 19.8747 2.07973 19.9475C2.0612 20.0203 2.05897 20.0962 2.07321 20.17L2.73988 23.7267H24.5199C25.0682 23.7241 25.6083 23.5931 26.0968 23.3442C26.5854 23.0953 27.0088 22.7354 27.3332 22.2933L31.6665 16.49H24.4932C24.2822 16.49 24.0741 16.5387 23.885 16.6324C23.6959 16.726 23.531 16.8621 23.4032 17.03Z" fill="#71A5D8"/>
<path d="M31.6665 16.49L27.3332 22.2933C27.0067 22.7306 26.5827 23.0858 26.0949 23.3305C25.6071 23.5753 25.0689 23.7029 24.5232 23.7033H21.2732C21.8194 23.7029 22.358 23.5753 22.8464 23.3306C23.3347 23.0858 23.7593 22.7307 24.0865 22.2933L28.4199 16.49H31.6665Z" fill="#587DB5"/>
<path d="M30.3533 18.2467L31.6666 16.49H24.4933C24.2823 16.49 24.0742 16.5387 23.8851 16.6324C23.696 16.726 23.5311 16.8621 23.4033 17.03L22.47 18.2467H30.3533Z" fill="#5C5E88"/>
<path d="M31.6665 16.49L30.3532 18.2467H27.1099L28.4232 16.49H31.6665Z" fill="#484579"/>
<path d="M8.08667 22.0004H7.33333C7.24493 22.0004 7.16014 21.9653 7.09763 21.9028C7.03512 21.8403 7 21.7555 7 21.6671C7 21.5787 7.03512 21.4939 7.09763 21.4314C7.16014 21.3689 7.24493 21.3337 7.33333 21.3337H8.09C8.17841 21.3337 8.26319 21.3689 8.3257 21.4314C8.38821 21.4939 8.42333 21.5787 8.42333 21.6671C8.42333 21.7555 8.38821 21.8403 8.3257 21.9028C8.26319 21.9653 8.17841 22.0004 8.09 22.0004H8.08667Z" fill="white"/>
<path d="M6.18652 22.0004H5.43319C5.34478 22.0004 5.26 21.9653 5.19748 21.9028C5.13497 21.8403 5.09985 21.7555 5.09985 21.6671C5.09985 21.5787 5.13497 21.4939 5.19748 21.4314C5.26 21.3689 5.34478 21.3337 5.43319 21.3337H6.18652C6.27493 21.3337 6.35971 21.3689 6.42222 21.4314C6.48473 21.4939 6.51985 21.5787 6.51985 21.6671C6.51985 21.7555 6.48473 21.8403 6.42222 21.9028C6.35971 21.9653 6.27493 22.0004 6.18652 22.0004Z" fill="white"/>
<path d="M4.28995 22.0004H3.53328C3.44488 22.0004 3.36009 21.9653 3.29758 21.9028C3.23507 21.8403 3.19995 21.7555 3.19995 21.6671C3.19995 21.5787 3.23507 21.4939 3.29758 21.4314C3.36009 21.3689 3.44488 21.3337 3.53328 21.3337H4.28995C4.37836 21.3337 4.46314 21.3689 4.52565 21.4314C4.58817 21.4939 4.62328 21.5787 4.62328 21.6671C4.62328 21.7555 4.58817 21.8403 4.52565 21.9028C4.46314 21.9653 4.37836 22.0004 4.28995 22.0004Z" fill="white"/>
<path d="M6.40649 11.3337C6.61086 11.7224 6.91768 12.0478 7.29372 12.2746C7.66976 12.5014 8.10069 12.621 8.53983 12.6204H15.3698C15.1139 12.2248 14.7629 11.8998 14.3488 11.675C13.9348 11.4502 13.471 11.3329 12.9998 11.3337H6.40649Z" fill="#718CD8"/>
<path d="M9.41002 8.29663H7.60669L9.14002 11.3266H12.21L9.41002 8.29663Z" fill="#5C5E88"/>
<path d="M14.9165 17.5232H12.9098C12.7644 17.5232 12.6465 17.6411 12.6465 17.7865V18.6865C12.6465 18.832 12.7644 18.9499 12.9098 18.9499H14.9165C15.0619 18.9499 15.1798 18.832 15.1798 18.6865V17.7865C15.1798 17.6411 15.0619 17.5232 14.9165 17.5232Z" fill="#D7E7F2"/>
</svg>
